<?xml version="1.0" encoding="UTF-8"?>
<mxfile host="app.diagrams.net" modified="2025-08-24T00:00:00.000Z" agent="Mozilla/5.0" version="24.7.17" etag="sequence-detailed" type="device">
  <diagram name="DSA Visualizer - Detailed Sequence Diagram" id="sequence-detailed">
    <mxGraphModel dx="2200" dy="1600" grid="1" gridSize="10" guides="1" tooltips="1" connect="1" arrows="1" fold="1" page="1" pageScale="1" pageWidth="1600" pageHeight="2000" math="0" shadow="0">
      <root>
        <mxCell id="0"/>
        <mxCell id="1" parent="0"/>
        
        <!-- Title -->
        <mxCell id="title" value="DSA Visualizer - Algorithm Learning Process (Detailed Sequence)" style="text;html=1;align=center;verticalAlign=middle;whiteSpace=wrap;rounded=0;fontSize=20;fontStyle=1;fillColor=#1ba1e2;fontColor=#ffffff;strokeColor=#1ba1e2;strokeWidth=2;" vertex="1" parent="1">
          <mxGeometry x="200" y="30" width="1200" height="60" as="geometry"/>
        </mxCell>

        <!-- Participants/Objects -->
        <mxCell id="student" value="Student&#xa;User" style="shape=umlActor;verticalLabelPosition=bottom;verticalAlign=top;html=1;outlineConnect=0;fontSize=14;fontStyle=1;fillColor=#e1d5e7;strokeColor=#9673a6;" vertex="1" parent="1">
          <mxGeometry x="80" y="120" width="60" height="120" as="geometry"/>
        </mxCell>

        <mxCell id="browser" value=":Browser&#xa;Interface" style="rounded=1;whiteSpace=wrap;html=1;fontSize=12;fillColor=#d5e8d4;strokeColor=#82b366;fontStyle=1;" vertex="1" parent="1">
          <mxGeometry x="200" y="180" width="120" height="50" as="geometry"/>
        </mxCell>

        <mxCell id="react-app" value=":ReactApp&#xa;Component" style="rounded=1;whiteSpace=wrap;html=1;fontSize=12;fillColor=#ffe6cc;strokeColor=#d79b00;fontStyle=1;" vertex="1" parent="1">
          <mxGeometry x="360" y="180" width="120" height="50" as="geometry"/>
        </mxCell>

        <mxCell id="algorithm-controller" value=":AlgorithmController&#xa;Service" style="rounded=1;whiteSpace=wrap;html=1;fontSize=12;fillColor=#fff2cc;strokeColor=#d6b656;fontStyle=1;" vertex="1" parent="1">
          <mxGeometry x="520" y="180" width="140" height="50" as="geometry"/>
        </mxCell>

        <mxCell id="visualizer-engine" value=":VisualizerEngine&#xa;Core" style="rounded=1;whiteSpace=wrap;html=1;fontSize=12;fillColor=#f8cecc;strokeColor=#b85450;fontStyle=1;" vertex="1" parent="1">
          <mxGeometry x="700" y="180" width="140" height="50" as="geometry"/>
        </mxCell>

        <mxCell id="ai-assistant" value=":AIAssistant&#xa;Service" style="rounded=1;whiteSpace=wrap;html=1;fontSize=12;fillColor=#e1d5e7;strokeColor=#9673a6;fontStyle=1;" vertex="1" parent="1">
          <mxGeometry x="880" y="180" width="120" height="50" as="geometry"/>
        </mxCell>

        <mxCell id="data-manager" value=":DataManager&#xa;Repository" style="rounded=1;whiteSpace=wrap;html=1;fontSize=12;fillColor=#dae8fc;strokeColor=#6c8ebf;fontStyle=1;" vertex="1" parent="1">
          <mxGeometry x="1040" y="180" width="120" height="50" as="geometry"/>
        </mxCell>

        <mxCell id="database" value=":Database&#xa;PostgreSQL" style="shape=cylinder3;whiteSpace=wrap;html=1;boundedLbl=1;backgroundOutline=1;size=15;fontSize=12;fillColor=#f0f0f0;strokeColor=#666666;fontStyle=1;" vertex="1" parent="1">
          <mxGeometry x="1200" y="170" width="100" height="70" as="geometry"/>
        </mxCell>

        <!-- Lifelines -->
        <mxCell id="lifeline-student" value="" style="shape=line;strokeWidth=2;html=1;strokeColor=#666666;fillColor=none;dashed=1;dashPattern=8 4;" vertex="1" parent="1">
          <mxGeometry x="110" y="240" width="0" height="1500" as="geometry"/>
        </mxCell>

        <mxCell id="lifeline-browser" value="" style="shape=line;strokeWidth=2;html=1;strokeColor=#666666;fillColor=none;dashed=1;dashPattern=8 4;" vertex="1" parent="1">
          <mxGeometry x="260" y="230" width="0" height="1510" as="geometry"/>
        </mxCell>

        <mxCell id="lifeline-react" value="" style="shape=line;strokeWidth=2;html=1;strokeColor=#666666;fillColor=none;dashed=1;dashPattern=8 4;" vertex="1" parent="1">
          <mxGeometry x="420" y="230" width="0" height="1510" as="geometry"/>
        </mxCell>

        <mxCell id="lifeline-controller" value="" style="shape=line;strokeWidth=2;html=1;strokeColor=#666666;fillColor=none;dashed=1;dashPattern=8 4;" vertex="1" parent="1">
          <mxGeometry x="590" y="230" width="0" height="1510" as="geometry"/>
        </mxCell>

        <mxCell id="lifeline-engine" value="" style="shape=line;strokeWidth=2;html=1;strokeColor=#666666;fillColor=none;dashed=1;dashPattern=8 4;" vertex="1" parent="1">
          <mxGeometry x="770" y="230" width="0" height="1510" as="geometry"/>
        </mxCell>

        <mxCell id="lifeline-ai" value="" style="shape=line;strokeWidth=2;html=1;strokeColor=#666666;fillColor=none;dashed=1;dashPattern=8 4;" vertex="1" parent="1">
          <mxGeometry x="940" y="230" width="0" height="1510" as="geometry"/>
        </mxCell>

        <mxCell id="lifeline-data" value="" style="shape=line;strokeWidth=2;html=1;strokeColor=#666666;fillColor=none;dashed=1;dashPattern=8 4;" vertex="1" parent="1">
          <mxGeometry x="1100" y="230" width="0" height="1510" as="geometry"/>
        </mxCell>

        <mxCell id="lifeline-db" value="" style="shape=line;strokeWidth=2;html=1;strokeColor=#666666;fillColor=none;dashed=1;dashPattern=8 4;" vertex="1" parent="1">
          <mxGeometry x="1250" y="240" width="0" height="1500" as="geometry"/>
        </mxCell>

        <!-- Activation Boxes -->
        <mxCell id="activation-browser-1" value="" style="rounded=0;whiteSpace=wrap;html=1;fontSize=12;fillColor=#d5e8d4;strokeColor=#82b366;" vertex="1" parent="1">
          <mxGeometry x="255" y="280" width="10" height="350" as="geometry"/>
        </mxCell>

        <mxCell id="activation-react-1" value="" style="rounded=0;whiteSpace=wrap;html=1;fontSize=12;fillColor=#ffe6cc;strokeColor=#d79b00;" vertex="1" parent="1">
          <mxGeometry x="415" y="320" width="10" height="300" as="geometry"/>
        </mxCell>

        <mxCell id="activation-controller-1" value="" style="rounded=0;whiteSpace=wrap;html=1;fontSize=12;fillColor=#fff2cc;strokeColor=#d6b656;" vertex="1" parent="1">
          <mxGeometry x="585" y="360" width="10" height="250" as="geometry"/>
        </mxCell>

        <mxCell id="activation-engine-1" value="" style="rounded=0;whiteSpace=wrap;html=1;fontSize=12;fillColor=#f8cecc;strokeColor=#b85450;" vertex="1" parent="1">
          <mxGeometry x="765" y="400" width="10" height="200" as="geometry"/>
        </mxCell>

        <mxCell id="activation-ai-1" value="" style="rounded=0;whiteSpace=wrap;html=1;fontSize=12;fillColor=#e1d5e7;strokeColor=#9673a6;" vertex="1" parent="1">
          <mxGeometry x="935" y="440" width="10" height="80" as="geometry"/>
        </mxCell>

        <mxCell id="activation-data-1" value="" style="rounded=0;whiteSpace=wrap;html=1;fontSize=12;fillColor=#dae8fc;strokeColor=#6c8ebf;" vertex="1" parent="1">
          <mxGeometry x="1095" y="480" width="10" height="60" as="geometry"/>
        </mxCell>

        <mxCell id="activation-db-1" value="" style="rounded=0;whiteSpace=wrap;html=1;fontSize=12;fillColor=#f0f0f0;strokeColor=#666666;" vertex="1" parent="1">
          <mxGeometry x="1245" y="500" width="10" height="30" as="geometry"/>
        </mxCell>

        <!-- Messages with Numbers -->
        <!-- Phase 1: User Interaction -->
        <mxCell id="msg1" value="1: selectAlgorithm(bubbleSort)" style="endArrow=block;html=1;rounded=0;fontSize=11;fontStyle=1;labelPosition=center;verticalLabelPosition=middle;align=center;verticalAlign=bottom;strokeWidth=2;" edge="1" parent="1">
          <mxGeometry x="0.1" y="-10" width="50" height="50" relative="1" as="geometry">
            <mxPoint x="110" y="290" as="sourcePoint"/>
            <mxPoint x="255" y="290" as="targetPoint"/>
            <mxPoint as="offset"/>
          </mxGeometry>
        </mxCell>

        <mxCell id="msg2" value="2: loadComponent(AlgorithmPage)" style="endArrow=block;html=1;rounded=0;fontSize=11;fontStyle=1;labelPosition=center;verticalLabelPosition=middle;align=center;verticalAlign=bottom;strokeWidth=2;" edge="1" parent="1">
          <mxGeometry x="0.1" y="-10" width="50" height="50" relative="1" as="geometry">
            <mxPoint x="265" y="330" as="sourcePoint"/>
            <mxPoint x="415" y="330" as="targetPoint"/>
            <mxPoint as="offset"/>
          </mxGeometry>
        </mxCell>

        <mxCell id="msg3" value="3: initializeAlgorithm(bubbleSort)" style="endArrow=block;html=1;rounded=0;fontSize=11;fontStyle=1;labelPosition=center;verticalLabelPosition=middle;align=center;verticalAlign=bottom;strokeWidth=2;" edge="1" parent="1">
          <mxGeometry x="0.1" y="-10" width="50" height="50" relative="1" as="geometry">
            <mxPoint x="425" y="370" as="sourcePoint"/>
            <mxPoint x="585" y="370" as="targetPoint"/>
            <mxPoint as="offset"/>
          </mxGeometry>
        </mxCell>

        <mxCell id="msg4" value="4: createVisualization(config)" style="endArrow=block;html=1;rounded=0;fontSize=11;fontStyle=1;labelPosition=center;verticalLabelPosition=middle;align=center;verticalAlign=bottom;strokeWidth=2;" edge="1" parent="1">
          <mxGeometry x="0.1" y="-10" width="50" height="50" relative="1" as="geometry">
            <mxPoint x="595" y="410" as="sourcePoint"/>
            <mxPoint x="765" y="410" as="targetPoint"/>
            <mxPoint as="offset"/>
          </mxGeometry>
        </mxCell>

        <!-- Phase 2: AI Assistance -->
        <mxCell id="msg5" value="5: getExplanation(algorithm)" style="endArrow=block;html=1;rounded=0;fontSize=11;fontStyle=1;labelPosition=center;verticalLabelPosition=middle;align=center;verticalAlign=bottom;strokeWidth=2;" edge="1" parent="1">
          <mxGeometry x="0.1" y="-10" width="50" height="50" relative="1" as="geometry">
            <mxPoint x="775" y="450" as="sourcePoint"/>
            <mxPoint x="935" y="450" as="targetPoint"/>
            <mxPoint as="offset"/>
          </mxGeometry>
        </mxCell>

        <mxCell id="msg6" value="6: fetchAlgorithmData()" style="endArrow=block;html=1;rounded=0;fontSize=11;fontStyle=1;labelPosition=center;verticalLabelPosition=middle;align=center;verticalAlign=bottom;strokeWidth=2;" edge="1" parent="1">
          <mxGeometry x="0.1" y="-10" width="50" height="50" relative="1" as="geometry">
            <mxPoint x="945" y="490" as="sourcePoint"/>
            <mxPoint x="1095" y="490" as="targetPoint"/>
            <mxPoint as="offset"/>
          </mxGeometry>
        </mxCell>

        <mxCell id="msg7" value="7: SELECT * FROM algorithms" style="endArrow=block;html=1;rounded=0;fontSize=11;fontStyle=1;labelPosition=center;verticalLabelPosition=middle;align=center;verticalAlign=bottom;strokeWidth=2;" edge="1" parent="1">
          <mxGeometry x="0.1" y="-10" width="50" height="50" relative="1" as="geometry">
            <mxPoint x="1105" y="510" as="sourcePoint"/>
            <mxPoint x="1245" y="510" as="targetPoint"/>
            <mxPoint as="offset"/>
          </mxGeometry>
        </mxCell>

        <!-- Return Messages -->
        <mxCell id="return1" value="algorithmDetails" style="endArrow=open;html=1;rounded=0;fontSize=11;dashed=1;labelPosition=center;verticalLabelPosition=middle;align=center;verticalAlign=top;strokeWidth=1;" edge="1" parent="1">
          <mxGeometry x="0.1" y="10" width="50" height="50" relative="1" as="geometry">
            <mxPoint x="1245" y="520" as="sourcePoint"/>
            <mxPoint x="1105" y="520" as="targetPoint"/>
            <mxPoint as="offset"/>
          </mxGeometry>
        </mxCell>

        <mxCell id="return2" value="explanationText" style="endArrow=open;html=1;rounded=0;fontSize=11;dashed=1;labelPosition=center;verticalLabelPosition=middle;align=center;verticalAlign=top;strokeWidth=1;" edge="1" parent="1">
          <mxGeometry x="0.1" y="10" width="50" height="50" relative="1" as="geometry">
            <mxPoint x="1095" y="530" as="sourcePoint"/>
            <mxPoint x="945" y="530" as="targetPoint"/>
            <mxPoint as="offset"/>
          </mxGeometry>
        </mxCell>

        <mxCell id="return3" value="AIExplanation" style="endArrow=open;html=1;rounded=0;fontSize=11;dashed=1;labelPosition=center;verticalLabelPosition=middle;align=center;verticalAlign=top;strokeWidth=1;" edge="1" parent="1">
          <mxGeometry x="0.1" y="10" width="50" height="50" relative="1" as="geometry">
            <mxPoint x="935" y="540" as="sourcePoint"/>
            <mxPoint x="775" y="540" as="targetPoint"/>
            <mxPoint as="offset"/>
          </mxGeometry>
        </mxCell>

        <mxCell id="return4" value="visualizationReady" style="endArrow=open;html=1;rounded=0;fontSize=11;dashed=1;labelPosition=center;verticalLabelPosition=middle;align=center;verticalAlign=top;strokeWidth=1;" edge="1" parent="1">
          <mxGeometry x="0.1" y="10" width="50" height="50" relative="1" as="geometry">
            <mxPoint x="765" y="550" as="sourcePoint"/>
            <mxPoint x="595" y="550" as="targetPoint"/>
            <mxPoint as="offset"/>
          </mxGeometry>
        </mxCell>

        <mxCell id="return5" value="componentLoaded" style="endArrow=open;html=1;rounded=0;fontSize=11;dashed=1;labelPosition=center;verticalLabelPosition=middle;align=center;verticalAlign=top;strokeWidth=1;" edge="1" parent="1">
          <mxGeometry x="0.1" y="10" width="50" height="50" relative="1" as="geometry">
            <mxPoint x="585" y="560" as="sourcePoint"/>
            <mxPoint x="425" y="560" as="targetPoint"/>
            <mxPoint as="offset"/>
          </mxGeometry>
        </mxCell>

        <mxCell id="return6" value="pageDisplayed" style="endArrow=open;html=1;rounded=0;fontSize=11;dashed=1;labelPosition=center;verticalLabelPosition=middle;align=center;verticalAlign=top;strokeWidth=1;" edge="1" parent="1">
          <mxGeometry x="0.1" y="10" width="50" height="50" relative="1" as="geometry">
            <mxPoint x="415" y="570" as="sourcePoint"/>
            <mxPoint x="265" y="570" as="targetPoint"/>
            <mxPoint as="offset"/>
          </mxGeometry>
        </mxCell>

        <mxCell id="return7" value="algorithmInterface" style="endArrow=open;html=1;rounded=0;fontSize=11;dashed=1;labelPosition=center;verticalLabelPosition=middle;align=center;verticalAlign=top;strokeWidth=1;" edge="1" parent="1">
          <mxGeometry x="0.1" y="10" width="50" height="50" relative="1" as="geometry">
            <mxPoint x="255" y="580" as="sourcePoint"/>
            <mxPoint x="110" y="580" as="targetPoint"/>
            <mxPoint as="offset"/>
          </mxGeometry>
        </mxCell>

        <!-- Phase 3: User Input & Algorithm Execution -->
        <mxCell id="activation-browser-2" value="" style="rounded=0;whiteSpace=wrap;html=1;fontSize=12;fillColor=#d5e8d4;strokeColor=#82b366;" vertex="1" parent="1">
          <mxGeometry x="255" y="660" width="10" height="400" as="geometry"/>
        </mxCell>

        <mxCell id="activation-react-2" value="" style="rounded=0;whiteSpace=wrap;html=1;fontSize=12;fillColor=#ffe6cc;strokeColor=#d79b00;" vertex="1" parent="1">
          <mxGeometry x="415" y="700" width="10" height="350" as="geometry"/>
        </mxCell>

        <mxCell id="activation-controller-2" value="" style="rounded=0;whiteSpace=wrap;html=1;fontSize=12;fillColor=#fff2cc;strokeColor=#d6b656;" vertex="1" parent="1">
          <mxGeometry x="585" y="740" width="10" height="300" as="geometry"/>
        </mxCell>

        <mxCell id="activation-engine-2" value="" style="rounded=0;whiteSpace=wrap;html=1;fontSize=12;fillColor=#f8cecc;strokeColor=#b85450;" vertex="1" parent="1">
          <mxGeometry x="765" y="780" width="10" height="250" as="geometry"/>
        </mxCell>

        <mxCell id="msg8" value="8: inputData([64,34,25,12,22])" style="endArrow=block;html=1;rounded=0;fontSize=11;fontStyle=1;labelPosition=center;verticalLabelPosition=middle;align=center;verticalAlign=bottom;strokeWidth=2;" edge="1" parent="1">
          <mxGeometry x="0.1" y="-10" width="50" height="50" relative="1" as="geometry">
            <mxPoint x="110" y="670" as="sourcePoint"/>
            <mxPoint x="255" y="670" as="targetPoint"/>
            <mxPoint as="offset"/>
          </mxGeometry>
        </mxCell>

        <mxCell id="msg9" value="9: setArrayData(data)" style="endArrow=block;html=1;rounded=0;fontSize=11;fontStyle=1;labelPosition=center;verticalLabelPosition=middle;align=center;verticalAlign=bottom;strokeWidth=2;" edge="1" parent="1">
          <mxGeometry x="0.1" y="-10" width="50" height="50" relative="1" as="geometry">
            <mxPoint x="265" y="710" as="sourcePoint"/>
            <mxPoint x="415" y="710" as="targetPoint"/>
            <mxPoint as="offset"/>
          </mxGeometry>
        </mxCell>

        <mxCell id="msg10" value="10: startSorting()" style="endArrow=block;html=1;rounded=0;fontSize=11;fontStyle=1;labelPosition=center;verticalLabelPosition=middle;align=center;verticalAlign=bottom;strokeWidth=2;" edge="1" parent="1">
          <mxGeometry x="0.1" y="-10" width="50" height="50" relative="1" as="geometry">
            <mxPoint x="110" y="750" as="sourcePoint"/>
            <mxPoint x="255" y="750" as="targetPoint"/>
            <mxPoint as="offset"/>
          </mxGeometry>
        </mxCell>

        <mxCell id="msg11" value="11: executeAlgorithm()" style="endArrow=block;html=1;rounded=0;fontSize=11;fontStyle=1;labelPosition=center;verticalLabelPosition=middle;align=center;verticalAlign=bottom;strokeWidth=2;" edge="1" parent="1">
          <mxGeometry x="0.1" y="-10" width="50" height="50" relative="1" as="geometry">
            <mxPoint x="265" y="790" as="sourcePoint"/>
            <mxPoint x="415" y="790" as="targetPoint"/>
            <mxPoint as="offset"/>
          </mxGeometry>
        </mxCell>

        <mxCell id="msg12" value="12: runBubbleSort(array)" style="endArrow=block;html=1;rounded=0;fontSize=11;fontStyle=1;labelPosition=center;verticalLabelPosition=middle;align=center;verticalAlign=bottom;strokeWidth=2;" edge="1" parent="1">
          <mxGeometry x="0.1" y="-10" width="50" height="50" relative="1" as="geometry">
            <mxPoint x="425" y="830" as="sourcePoint"/>
            <mxPoint x="585" y="830" as="targetPoint"/>
            <mxPoint as="offset"/>
          </mxGeometry>
        </mxCell>

        <!-- Loop Fragment -->
        <mxCell id="loop-frame" value="loop [for each step in algorithm]" style="shape=umlFrame;whiteSpace=wrap;html=1;pointerEvents=0;fontSize=12;fontStyle=1;fillColor=#f5f5f5;strokeColor=#666666;" vertex="1" parent="1">
          <mxGeometry x="550" y="860" width="500" height="200" as="geometry"/>
        </mxCell>

        <mxCell id="msg13" value="13: animateStep(step)" style="endArrow=block;html=1;rounded=0;fontSize=11;fontStyle=1;labelPosition=center;verticalLabelPosition=middle;align=center;verticalAlign=bottom;strokeWidth=2;" edge="1" parent="1">
          <mxGeometry x="0.1" y="-10" width="50" height="50" relative="1" as="geometry">
            <mxPoint x="595" y="900" as="sourcePoint"/>
            <mxPoint x="765" y="900" as="targetPoint"/>
            <mxPoint as="offset"/>
          </mxGeometry>
        </mxCell>

        <mxCell id="msg14" value="14: updateVisualization()" style="endArrow=block;html=1;rounded=0;fontSize=11;fontStyle=1;labelPosition=center;verticalLabelPosition=middle;align=center;verticalAlign=bottom;strokeWidth=2;" edge="1" parent="1">
          <mxGeometry x="0.1" y="-10" width="50" height="50" relative="1" as="geometry">
            <mxPoint x="765" y="940" as="sourcePoint"/>
            <mxPoint x="425" y="940" as="targetPoint"/>
            <mxPoint as="offset"/>
          </mxGeometry>
        </mxCell>

        <mxCell id="msg15" value="15: renderStep()" style="endArrow=block;html=1;rounded=0;fontSize=11;fontStyle=1;labelPosition=center;verticalLabelPosition=middle;align=center;verticalAlign=bottom;strokeWidth=2;" edge="1" parent="1">
          <mxGeometry x="0.1" y="-10" width="50" height="50" relative="1" as="geometry">
            <mxPoint x="415" y="980" as="sourcePoint"/>
            <mxPoint x="265" y="980" as="targetPoint"/>
            <mxPoint as="offset"/>
          </mxGeometry>
        </mxCell>

        <mxCell id="msg16" value="16: displayStep()" style="endArrow=block;html=1;rounded=0;fontSize=11;fontStyle=1;labelPosition=center;verticalLabelPosition=middle;align=center;verticalAlign=bottom;strokeWidth=2;" edge="1" parent="1">
          <mxGeometry x="0.1" y="-10" width="50" height="50" relative="1" as="geometry">
            <mxPoint x="255" y="1020" as="sourcePoint"/>
            <mxPoint x="110" y="1020" as="targetPoint"/>
            <mxPoint as="offset"/>
          </mxGeometry>
        </mxCell>

        <!-- Final Returns -->
        <mxCell id="return8" value="sortingComplete" style="endArrow=open;html=1;rounded=0;fontSize=11;dashed=1;labelPosition=center;verticalLabelPosition=middle;align=center;verticalAlign=top;strokeWidth=1;" edge="1" parent="1">
          <mxGeometry x="0.1" y="10" width="50" height="50" relative="1" as="geometry">
            <mxPoint x="765" y="1100" as="sourcePoint"/>
            <mxPoint x="595" y="1100" as="targetPoint"/>
            <mxPoint as="offset"/>
          </mxGeometry>
        </mxCell>

        <mxCell id="return9" value="algorithmFinished" style="endArrow=open;html=1;rounded=0;fontSize=11;dashed=1;labelPosition=center;verticalLabelPosition=middle;align=center;verticalAlign=top;strokeWidth=1;" edge="1" parent="1">
          <mxGeometry x="0.1" y="10" width="50" height="50" relative="1" as="geometry">
            <mxPoint x="585" y="1110" as="sourcePoint"/>
            <mxPoint x="425" y="1110" as="targetPoint"/>
            <mxPoint as="offset"/>
          </mxGeometry>
        </mxCell>

        <mxCell id="return10" value="executionComplete" style="endArrow=open;html=1;rounded=0;fontSize=11;dashed=1;labelPosition=center;verticalLabelPosition=middle;align=center;verticalAlign=top;strokeWidth=1;" edge="1" parent="1">
          <mxGeometry x="0.1" y="10" width="50" height="50" relative="1" as="geometry">
            <mxPoint x="415" y="1120" as="sourcePoint"/>
            <mxPoint x="265" y="1120" as="targetPoint"/>
            <mxPoint as="offset"/>
          </mxGeometry>
        </mxCell>

        <mxCell id="return11" value="sortingVisualized" style="endArrow=open;html=1;rounded=0;fontSize=11;dashed=1;labelPosition=center;verticalLabelPosition=middle;align=center;verticalAlign=top;strokeWidth=1;" edge="1" parent="1">
          <mxGeometry x="0.1" y="10" width="50" height="50" relative="1" as="geometry">
            <mxPoint x="255" y="1130" as="sourcePoint"/>
            <mxPoint x="110" y="1130" as="targetPoint"/>
            <mxPoint as="offset"/>
          </mxGeometry>
        </mxCell>

        <!-- Notes -->
        <mxCell id="note1" value="Note: AI Assistant provides&#xa;contextual explanations&#xa;and learning guidance" style="shape=note;whiteSpace=wrap;html=1;backgroundOutline=1;darkOpacity=0.05;fontSize=10;fillColor=#fff2cc;strokeColor=#d6b656;" vertex="1" parent="1">
          <mxGeometry x="1020" y="320" width="140" height="80" as="geometry"/>
        </mxCell>

        <mxCell id="note2" value="Note: Real-time visualization&#xa;with step-by-step animation&#xa;and user interaction controls" style="shape=note;whiteSpace=wrap;html=1;backgroundOutline=1;darkOpacity=0.05;fontSize=10;fillColor=#f8cecc;strokeColor=#b85450;" vertex="1" parent="1">
          <mxGeometry x="850" y="800" width="150" height="80" as="geometry"/>
        </mxCell>

        <!-- Phase Labels -->
        <mxCell id="phase1-label" value="Phase 1: Initialization &amp; Setup" style="text;html=1;align=center;verticalAlign=middle;whiteSpace=wrap;rounded=1;fontSize=12;fontStyle=1;fillColor=#e1f5fe;strokeColor=#01579b;" vertex="1" parent="1">
          <mxGeometry x="20" y="250" width="180" height="30" as="geometry"/>
        </mxCell>

        <mxCell id="phase2-label" value="Phase 2: Data Input &amp; Execution" style="text;html=1;align=center;verticalAlign=middle;whiteSpace=wrap;rounded=1;fontSize=12;fontStyle=1;fillColor=#f3e5f5;strokeColor=#8e24aa;" vertex="1" parent="1">
          <mxGeometry x="20" y="630" width="180" height="30" as="geometry"/>
        </mxCell>

        <mxCell id="phase3-label" value="Phase 3: Algorithm Processing" style="text;html=1;align=center;verticalAlign=middle;whiteSpace=wrap;rounded=1;fontSize=12;fontStyle=1;fillColor=#e8f5e8;strokeColor=#4caf50;" vertex="1" parent="1">
          <mxGeometry x="20" y="870" width="180" height="30" as="geometry"/>
        </mxCell>

        <!-- Legend -->
        <mxCell id="legend-box" value="" style="rounded=1;whiteSpace=wrap;html=1;fontSize=12;fillColor=#f5f5f5;strokeColor=#666666;strokeWidth=2;" vertex="1" parent="1">
          <mxGeometry x="200" y="1200" width="600" height="150" as="geometry"/>
        </mxCell>

        <mxCell id="legend-title" value="SEQUENCE DIAGRAM LEGEND" style="text;html=1;align=center;verticalAlign=middle;whiteSpace=wrap;rounded=0;fontSize=16;fontStyle=1;fontColor=#333333;" vertex="1" parent="1">
          <mxGeometry x="380" y="1210" width="240" height="30" as="geometry"/>
        </mxCell>

        <mxCell id="legend-sync" value="→ Synchronous Message (with number)" style="text;html=1;align=left;verticalAlign=middle;whiteSpace=wrap;rounded=0;fontSize=11;fontColor=#333333;" vertex="1" parent="1">
          <mxGeometry x="220" y="1250" width="250" height="20" as="geometry"/>
        </mxCell>

        <mxCell id="legend-async" value="⤷ Return Message (dashed)" style="text;html=1;align=left;verticalAlign=middle;whiteSpace=wrap;rounded=0;fontSize=11;fontColor=#333333;" vertex="1" parent="1">
          <mxGeometry x="220" y="1270" width="250" height="20" as="geometry"/>
        </mxCell>

        <mxCell id="legend-activation" value="▬ Activation Box (focus of control)" style="text;html=1;align=left;verticalAlign=middle;whiteSpace=wrap;rounded=0;fontSize=11;fontColor=#333333;" vertex="1" parent="1">
          <mxGeometry x="220" y="1290" width="250" height="20" as="geometry"/>
        </mxCell>

        <mxCell id="legend-loop" value="⊞ Combined Fragment (loop, alt, opt)" style="text;html=1;align=left;verticalAlign=middle;whiteSpace=wrap;rounded=0;fontSize=11;fontColor=#333333;" vertex="1" parent="1">
          <mxGeometry x="220" y="1310" width="250" height="20" as="geometry"/>
        </mxCell>

        <mxCell id="legend-lifeline" value="┊ Lifeline (object lifetime)" style="text;html=1;align=left;verticalAlign=middle;whiteSpace=wrap;rounded=0;fontSize=11;fontColor=#333333;" vertex="1" parent="1">
          <mxGeometry x="500" y="1250" width="200" height="20" as="geometry"/>
        </mxCell>

        <mxCell id="legend-note" value="📝 Notes &amp; Comments" style="text;html=1;align=left;verticalAlign=middle;whiteSpace=wrap;rounded=0;fontSize=11;fontColor=#333333;" vertex="1" parent="1">
          <mxGeometry x="500" y="1270" width="200" height="20" as="geometry"/>
        </mxCell>

        <mxCell id="legend-actor" value="👤 Actor (User/External System)" style="text;html=1;align=left;verticalAlign=middle;whiteSpace=wrap;rounded=0;fontSize=11;fontColor=#333333;" vertex="1" parent="1">
          <mxGeometry x="500" y="1290" width="200" height="20" as="geometry"/>
        </mxCell>

        <mxCell id="legend-object" value="⬜ Object/Component/Service" style="text;html=1;align=left;verticalAlign=middle;whiteSpace=wrap;rounded=0;fontSize=11;fontColor=#333333;" vertex="1" parent="1">
          <mxGeometry x="500" y="1310" width="200" height="20" as="geometry"/>
        </mxCell>

      </root>
    </mxGraphModel>
  </diagram>
</mxfile>
